<svg width="159" height="53" viewBox="0 0 159 53" fill="none" xmlns="http://www.w3.org/2000/svg">
<g clip-path="url(#clip0_50_37)">
<path d="M2 51V3H97.5" stroke="black"/>
<rect x="0.5" y="1.5" width="4" height="4" fill="white" stroke="black"/>
<rect x="0.5" y="47.5" width="4" height="4" fill="white" stroke="black"/>
<rect x="94.5" y="0.5" width="4" height="4" fill="white" stroke="black"/>
<path d="M157 2V50H61.5" stroke="black"/>
<rect x="158.5" y="51.5" width="4" height="4" transform="rotate(180 158.5 51.5)" fill="white" stroke="black"/>
<rect x="158.5" y="5.5" width="4" height="4" transform="rotate(180 158.5 5.5)" fill="white" stroke="black"/>
<rect x="64.5" y="52.5" width="4" height="4" transform="rotate(180 64.5 52.5)" fill="white" stroke="black"/>
<path d="M55.08 20.88V32H53.256V27.136H48.024V32H46.2V20.88H48.024V25.648H53.256V20.88H55.08ZM65.5613 27.376C65.5613 27.7067 65.5399 28.0053 65.4973 28.272H58.7613C58.8146 28.976 59.0759 29.5413 59.5453 29.968C60.0146 30.3947 60.5906 30.608 61.2733 30.608C62.2546 30.608 62.9479 30.1973 63.3533 29.376H65.3212C65.0546 30.1867 64.5693 30.8533 63.8653 31.376C63.1719 31.888 62.3079 32.144 61.2733 32.144C60.4306 32.144 59.6733 31.9573 59.0013 31.584C58.3399 31.2 57.8173 30.6667 57.4333 29.984C57.0599 29.2907 56.8733 28.4907 56.8733 27.584C56.8733 26.6773 57.0546 25.8827 57.4173 25.2C57.7906 24.5067 58.3079 23.9733 58.9693 23.6C59.6413 23.2267 60.4093 23.04 61.2733 23.04C62.1053 23.04 62.8466 23.2213 63.4973 23.584C64.1479 23.9467 64.6546 24.4587 65.0173 25.12C65.3799 25.7707 65.5613 26.5227 65.5613 27.376ZM63.6573 26.8C63.6466 26.128 63.4066 25.5893 62.9373 25.184C62.4679 24.7787 61.8866 24.576 61.1933 24.576C60.5639 24.576 60.0253 24.7787 59.5773 25.184C59.1293 25.5787 58.8626 26.1173 58.7773 26.8H63.6573ZM69.1803 20.16V32H67.3563V20.16H69.1803ZM73.399 20.16V32H71.575V20.16H73.399ZM79.6178 32.144C78.7858 32.144 78.0338 31.9573 77.3618 31.584C76.6898 31.2 76.1618 30.6667 75.7778 29.984C75.3938 29.2907 75.2018 28.4907 75.2018 27.584C75.2018 26.688 75.3991 25.8933 75.7938 25.2C76.1884 24.5067 76.7271 23.9733 77.4098 23.6C78.0924 23.2267 78.8551 23.04 79.6978 23.04C80.5404 23.04 81.3031 23.2267 81.9858 23.6C82.6684 23.9733 83.2071 24.5067 83.6018 25.2C83.9964 25.8933 84.1938 26.688 84.1938 27.584C84.1938 28.48 83.9911 29.2747 83.5858 29.968C83.1804 30.6613 82.6258 31.2 81.9218 31.584C81.2284 31.9573 80.4604 32.144 79.6178 32.144ZM79.6178 30.56C80.0871 30.56 80.5244 30.448 80.9298 30.224C81.3458 30 81.6818 29.664 81.9378 29.216C82.1938 28.768 82.3218 28.224 82.3218 27.584C82.3218 26.944 82.1991 26.4053 81.9538 25.968C81.7084 25.52 81.3831 25.184 80.9778 24.96C80.5724 24.736 80.1351 24.624 79.6658 24.624C79.1964 24.624 78.7591 24.736 78.3538 24.96C77.9591 25.184 77.6444 25.52 77.4098 25.968C77.1751 26.4053 77.0578 26.944 77.0578 27.584C77.0578 28.5333 77.2978 29.2693 77.7778 29.792C78.2684 30.304 78.8818 30.56 79.6178 30.56ZM91.9771 20.88V32H90.1531V20.88H91.9771ZM94.6599 20.88H96.6439L94.9639 24.688H93.6839L94.6599 20.88ZM108.919 23.04C109.612 23.04 110.231 23.184 110.775 23.472C111.33 23.76 111.762 24.1867 112.071 24.752C112.391 25.3173 112.551 26 112.551 26.8V32H110.743V27.072C110.743 26.2827 110.546 25.68 110.151 25.264C109.756 24.8373 109.218 24.624 108.535 24.624C107.852 24.624 107.308 24.8373 106.903 25.264C106.508 25.68 106.311 26.2827 106.311 27.072V32H104.503V27.072C104.503 26.2827 104.306 25.68 103.911 25.264C103.516 24.8373 102.978 24.624 102.295 24.624C101.612 24.624 101.068 24.8373 100.663 25.264C100.268 25.68 100.071 26.2827 100.071 27.072V32H98.2469V23.184H100.071V24.192C100.37 23.8293 100.748 23.5467 101.207 23.344C101.666 23.1413 102.156 23.04 102.679 23.04C103.383 23.04 104.012 23.1893 104.567 23.488C105.122 23.7867 105.548 24.2187 105.847 24.784C106.114 24.2507 106.53 23.8293 107.095 23.52C107.66 23.2 108.268 23.04 108.919 23.04Z" fill="#0082A6"/>
</g>
<defs>
<clipPath id="clip0_50_37">
<rect width="159" height="53" fill="white"/>
</clipPath>
</defs>
</svg>
