<svg width="756" height="387" viewBox="0 0 756 387" fill="none" xmlns="http://www.w3.org/2000/svg">
<mask id="path-1-outside-1_67_45" maskUnits="userSpaceOnUse" x="53" y="63" width="644" height="264" fill="black">
<rect fill="white" x="53" y="63" width="644" height="264"/>
<path d="M58 181.75V68H155.5V84.25H171.75V133H155.5V149.25H90.5V181.75H58ZM90.5 133H139.25V84.25H90.5V133ZM204.25 181.75V165.5H188V84.25H204.25V68H285.5V84.25H301.75V165.5H285.5V181.75H204.25ZM220.5 165.5H269.25V84.25H220.5V165.5ZM318 181.75V68H415.5V84.25H431.75V133H399.25V149.25H415.5V165.5H431.75V181.75H383V165.5H366.75V149.25H350.5V181.75H318ZM350.5 133H383V116.75H399.25V84.25H350.5V133ZM496.75 181.75V84.25H464.25V68H561.75V84.25H529.25V181.75H496.75ZM594.25 181.75V165.5H578V84.25H594.25V68H675.5V84.25H691.75V165.5H675.5V181.75H594.25ZM610.5 165.5H659.25V84.25H610.5V165.5ZM58 321.75V208H171.75V224.25H90.5V256.75H155.5V273H90.5V321.75H58ZM204.25 321.75V305.5H188V224.25H204.25V208H285.5V224.25H301.75V305.5H285.5V321.75H204.25ZM220.5 305.5H269.25V224.25H220.5V305.5ZM334.25 321.75V208H366.75V305.5H431.75V321.75H334.25ZM464.25 321.75V305.5H496.75V224.25H464.25V208H561.75V224.25H529.25V305.5H561.75V321.75H464.25ZM594.25 321.75V305.5H578V224.25H594.25V208H675.5V224.25H691.75V305.5H675.5V321.75H594.25ZM610.5 305.5H659.25V224.25H610.5V305.5Z"/>
</mask>
<path d="M58 181.75V68H155.5V84.25H171.75V133H155.5V149.25H90.5V181.75H58ZM90.5 133H139.25V84.25H90.5V133ZM204.25 181.75V165.5H188V84.25H204.25V68H285.5V84.25H301.75V165.5H285.5V181.75H204.25ZM220.5 165.5H269.25V84.25H220.5V165.5ZM318 181.75V68H415.5V84.25H431.75V133H399.25V149.25H415.5V165.5H431.75V181.75H383V165.5H366.75V149.25H350.5V181.75H318ZM350.5 133H383V116.75H399.25V84.25H350.5V133ZM496.75 181.75V84.25H464.25V68H561.75V84.25H529.25V181.75H496.75ZM594.25 181.75V165.5H578V84.25H594.25V68H675.5V84.25H691.75V165.5H675.5V181.75H594.25ZM610.5 165.5H659.25V84.25H610.5V165.5ZM58 321.75V208H171.75V224.25H90.5V256.75H155.5V273H90.5V321.75H58ZM204.25 321.75V305.5H188V224.25H204.25V208H285.5V224.25H301.75V305.5H285.5V321.75H204.25ZM220.5 305.5H269.25V224.25H220.5V305.5ZM334.25 321.75V208H366.75V305.5H431.75V321.75H334.25ZM464.25 321.75V305.5H496.75V224.25H464.25V208H561.75V224.25H529.25V305.5H561.75V321.75H464.25ZM594.25 321.75V305.5H578V224.25H594.25V208H675.5V224.25H691.75V305.5H675.5V321.75H594.25ZM610.5 305.5H659.25V224.25H610.5V305.5Z" fill="#0082A6"/>
<path d="M58 181.75H53V186.75H58V181.75ZM58 68V63H53V68H58ZM155.5 68H160.5V63H155.5V68ZM155.5 84.25H150.5V89.25H155.5V84.25ZM171.75 84.25H176.75V79.25H171.75V84.25ZM171.75 133V138H176.75V133H171.75ZM155.5 133V128H150.5V133H155.5ZM155.5 149.25V154.25H160.5V149.25H155.5ZM90.5 149.25V144.25H85.5V149.25H90.5ZM90.5 181.75V186.75H95.5V181.75H90.5ZM90.5 133H85.5V138H90.5V133ZM139.25 133V138H144.25V133H139.25ZM139.25 84.25H144.25V79.25H139.25V84.25ZM90.5 84.25V79.25H85.5V84.25H90.5ZM58 181.75H63V68H58H53V181.75H58ZM58 68V73H155.5V68V63H58V68ZM155.5 68H150.5V84.25H155.5H160.5V68H155.5ZM155.5 84.25V89.25H171.75V84.25V79.25H155.5V84.25ZM171.75 84.25H166.75V133H171.75H176.75V84.25H171.75ZM171.75 133V128H155.5V133V138H171.75V133ZM155.5 133H150.5V149.25H155.5H160.5V133H155.5ZM155.5 149.25V144.25H90.5V149.25V154.25H155.5V149.25ZM90.5 149.25H85.5V181.75H90.5H95.5V149.25H90.5ZM90.5 181.75V176.75H58V181.75V186.75H90.5V181.75ZM90.5 133V138H139.25V133V128H90.5V133ZM139.25 133H144.25V84.25H139.25H134.25V133H139.25ZM139.25 84.25V79.25H90.5V84.25V89.25H139.25V84.25ZM90.5 84.25H85.5V133H90.5H95.5V84.25H90.5ZM204.25 181.75H199.25V186.75H204.25V181.75ZM204.25 165.5H209.25V160.5H204.25V165.5ZM188 165.5H183V170.5H188V165.5ZM188 84.25V79.25H183V84.25H188ZM204.25 84.25V89.25H209.25V84.25H204.25ZM204.25 68V63H199.25V68H204.25ZM285.5 68H290.5V63H285.5V68ZM285.5 84.25H280.5V89.25H285.5V84.25ZM301.75 84.25H306.75V79.25H301.75V84.25ZM301.75 165.5V170.5H306.75V165.5H301.75ZM285.5 165.5V160.5H280.5V165.5H285.5ZM285.5 181.75V186.75H290.5V181.75H285.5ZM220.5 165.5H215.5V170.5H220.5V165.5ZM269.25 165.5V170.5H274.25V165.5H269.25ZM269.25 84.25H274.25V79.25H269.25V84.25ZM220.5 84.25V79.25H215.5V84.25H220.5ZM204.25 181.75H209.25V165.5H204.25H199.25V181.75H204.25ZM204.25 165.5V160.5H188V165.5V170.5H204.25V165.5ZM188 165.5H193V84.25H188H183V165.5H188ZM188 84.25V89.25H204.25V84.25V79.25H188V84.25ZM204.25 84.25H209.25V68H204.25H199.25V84.25H204.25ZM204.25 68V73H285.5V68V63H204.25V68ZM285.5 68H280.5V84.25H285.5H290.5V68H285.5ZM285.5 84.25V89.25H301.75V84.25V79.25H285.5V84.25ZM301.75 84.25H296.75V165.5H301.75H306.75V84.25H301.75ZM301.75 165.5V160.5H285.5V165.5V170.5H301.75V165.5ZM285.5 165.5H280.5V181.75H285.5H290.5V165.5H285.5ZM285.5 181.75V176.75H204.25V181.75V186.75H285.5V181.75ZM220.5 165.5V170.5H269.25V165.5V160.5H220.5V165.5ZM269.25 165.5H274.25V84.25H269.25H264.25V165.5H269.25ZM269.25 84.25V79.25H220.5V84.25V89.25H269.25V84.25ZM220.5 84.25H215.5V165.5H220.5H225.5V84.25H220.5ZM318 181.75H313V186.75H318V181.75ZM318 68V63H313V68H318ZM415.5 68H420.5V63H415.5V68ZM415.5 84.25H410.5V89.25H415.5V84.25ZM431.75 84.25H436.75V79.25H431.75V84.25ZM431.75 133V138H436.75V133H431.75ZM399.25 133V128H394.25V133H399.25ZM399.25 149.25H394.25V154.25H399.25V149.25ZM415.5 149.25H420.5V144.25H415.5V149.25ZM415.5 165.5H410.5V170.5H415.5V165.5ZM431.75 165.5H436.75V160.5H431.75V165.5ZM431.75 181.75V186.75H436.75V181.75H431.75ZM383 181.75H378V186.75H383V181.75ZM383 165.5H388V160.5H383V165.5ZM366.75 165.5H361.75V170.5H366.75V165.5ZM366.75 149.25H371.75V144.25H366.75V149.25ZM350.5 149.25V144.25H345.5V149.25H350.5ZM350.5 181.75V186.75H355.5V181.75H350.5ZM350.5 133H345.5V138H350.5V133ZM383 133V138H388V133H383ZM383 116.75V111.75H378V116.75H383ZM399.25 116.75V121.75H404.25V116.75H399.25ZM399.25 84.25H404.25V79.25H399.25V84.25ZM350.5 84.25V79.25H345.5V84.25H350.5ZM318 181.75H323V68H318H313V181.75H318ZM318 68V73H415.5V68V63H318V68ZM415.5 68H410.5V84.25H415.5H420.5V68H415.5ZM415.5 84.25V89.25H431.75V84.25V79.25H415.5V84.25ZM431.75 84.25H426.75V133H431.75H436.75V84.25H431.75ZM431.75 133V128H399.25V133V138H431.75V133ZM399.25 133H394.25V149.25H399.25H404.25V133H399.25ZM399.25 149.25V154.25H415.5V149.25V144.25H399.25V149.25ZM415.5 149.25H410.5V165.5H415.5H420.5V149.25H415.5ZM415.5 165.5V170.5H431.75V165.5V160.5H415.5V165.5ZM431.75 165.5H426.75V181.75H431.75H436.75V165.5H431.75ZM431.75 181.75V176.75H383V181.75V186.75H431.75V181.75ZM383 181.75H388V165.5H383H378V181.75H383ZM383 165.5V160.5H366.75V165.5V170.5H383V165.5ZM366.75 165.5H371.75V149.25H366.75H361.75V165.5H366.75ZM366.75 149.25V144.25H350.5V149.25V154.25H366.75V149.25ZM350.5 149.25H345.5V181.75H350.5H355.5V149.25H350.5ZM350.5 181.75V176.75H318V181.75V186.75H350.5V181.75ZM350.5 133V138H383V133V128H350.5V133ZM383 133H388V116.75H383H378V133H383ZM383 116.75V121.75H399.25V116.75V111.75H383V116.75ZM399.25 116.75H404.25V84.25H399.25H394.25V116.75H399.25ZM399.25 84.25V79.25H350.5V84.25V89.25H399.25V84.25ZM350.5 84.25H345.5V133H350.5H355.5V84.25H350.5ZM496.75 181.75H491.75V186.75H496.75V181.75ZM496.75 84.25H501.75V79.25H496.75V84.25ZM464.25 84.25H459.25V89.25H464.25V84.25ZM464.25 68V63H459.25V68H464.25ZM561.75 68H566.75V63H561.75V68ZM561.75 84.25V89.25H566.75V84.25H561.75ZM529.25 84.25V79.25H524.25V84.25H529.25ZM529.25 181.75V186.75H534.25V181.75H529.25ZM496.75 181.75H501.75V84.25H496.75H491.75V181.75H496.75ZM496.75 84.25V79.25H464.25V84.25V89.25H496.75V84.25ZM464.25 84.25H469.25V68H464.25H459.25V84.25H464.25ZM464.25 68V73H561.75V68V63H464.25V68ZM561.75 68H556.75V84.25H561.75H566.75V68H561.75ZM561.75 84.25V79.25H529.25V84.25V89.25H561.75V84.25ZM529.25 84.25H524.25V181.75H529.25H534.25V84.25H529.25ZM529.25 181.75V176.75H496.75V181.75V186.75H529.25V181.75ZM594.25 181.75H589.25V186.75H594.25V181.75ZM594.25 165.5H599.25V160.5H594.25V165.5ZM578 165.5H573V170.5H578V165.5ZM578 84.25V79.25H573V84.25H578ZM594.25 84.25V89.25H599.25V84.25H594.25ZM594.25 68V63H589.25V68H594.25ZM675.5 68H680.5V63H675.5V68ZM675.5 84.25H670.5V89.25H675.5V84.25ZM691.75 84.25H696.75V79.25H691.75V84.25ZM691.75 165.5V170.5H696.75V165.5H691.75ZM675.5 165.5V160.5H670.5V165.5H675.5ZM675.5 181.75V186.75H680.5V181.75H675.5ZM610.5 165.5H605.5V170.5H610.5V165.5ZM659.25 165.5V170.5H664.25V165.5H659.25ZM659.25 84.25H664.25V79.25H659.25V84.25ZM610.5 84.25V79.25H605.5V84.25H610.5ZM594.25 181.75H599.25V165.5H594.25H589.25V181.75H594.25ZM594.25 165.5V160.5H578V165.5V170.5H594.25V165.5ZM578 165.5H583V84.25H578H573V165.5H578ZM578 84.25V89.25H594.25V84.25V79.25H578V84.25ZM594.25 84.25H599.25V68H594.25H589.25V84.25H594.25ZM594.25 68V73H675.5V68V63H594.25V68ZM675.5 68H670.5V84.25H675.5H680.5V68H675.5ZM675.5 84.25V89.25H691.75V84.25V79.25H675.5V84.25ZM691.75 84.25H686.75V165.5H691.75H696.75V84.25H691.75ZM691.75 165.5V160.5H675.5V165.5V170.5H691.75V165.5ZM675.5 165.5H670.5V181.75H675.5H680.5V165.5H675.5ZM675.5 181.75V176.75H594.25V181.75V186.75H675.5V181.75ZM610.5 165.5V170.5H659.25V165.5V160.5H610.5V165.5ZM659.25 165.5H664.25V84.25H659.25H654.25V165.5H659.25ZM659.25 84.25V79.25H610.5V84.25V89.25H659.25V84.25ZM610.5 84.25H605.5V165.5H610.5H615.5V84.25H610.5ZM58 321.75H53V326.75H58V321.75ZM58 208V203H53V208H58ZM171.75 208H176.75V203H171.75V208ZM171.75 224.25V229.25H176.75V224.25H171.75ZM90.5 224.25V219.25H85.5V224.25H90.5ZM90.5 256.75H85.5V261.75H90.5V256.75ZM155.5 256.75H160.5V251.75H155.5V256.75ZM155.5 273V278H160.5V273H155.5ZM90.5 273V268H85.5V273H90.5ZM90.5 321.75V326.75H95.5V321.75H90.5ZM58 321.75H63V208H58H53V321.75H58ZM58 208V213H171.75V208V203H58V208ZM171.75 208H166.75V224.25H171.75H176.75V208H171.75ZM171.75 224.25V219.25H90.5V224.25V229.25H171.75V224.25ZM90.5 224.25H85.5V256.75H90.5H95.5V224.25H90.5ZM90.5 256.75V261.75H155.5V256.75V251.75H90.5V256.75ZM155.5 256.75H150.5V273H155.5H160.5V256.75H155.5ZM155.5 273V268H90.5V273V278H155.5V273ZM90.5 273H85.5V321.75H90.5H95.5V273H90.5ZM90.5 321.75V316.75H58V321.75V326.75H90.5V321.75ZM204.25 321.75H199.25V326.75H204.25V321.75ZM204.25 305.5H209.25V300.5H204.25V305.5ZM188 305.5H183V310.5H188V305.5ZM188 224.25V219.25H183V224.25H188ZM204.25 224.25V229.25H209.25V224.25H204.25ZM204.25 208V203H199.25V208H204.25ZM285.5 208H290.5V203H285.5V208ZM285.5 224.25H280.5V229.25H285.5V224.25ZM301.75 224.25H306.75V219.25H301.75V224.25ZM301.75 305.5V310.5H306.75V305.5H301.75ZM285.5 305.5V300.5H280.5V305.5H285.5ZM285.5 321.75V326.75H290.5V321.75H285.5ZM220.5 305.5H215.5V310.5H220.5V305.5ZM269.25 305.5V310.5H274.25V305.5H269.25ZM269.25 224.25H274.25V219.25H269.25V224.25ZM220.5 224.25V219.25H215.5V224.25H220.5ZM204.25 321.75H209.25V305.5H204.25H199.25V321.75H204.25ZM204.25 305.5V300.5H188V305.5V310.5H204.25V305.5ZM188 305.5H193V224.25H188H183V305.5H188ZM188 224.25V229.25H204.25V224.25V219.25H188V224.25ZM204.25 224.25H209.25V208H204.25H199.25V224.25H204.25ZM204.25 208V213H285.5V208V203H204.25V208ZM285.5 208H280.5V224.25H285.5H290.5V208H285.5ZM285.5 224.25V229.25H301.75V224.25V219.25H285.5V224.25ZM301.75 224.25H296.75V305.5H301.75H306.75V224.25H301.75ZM301.75 305.5V300.5H285.5V305.5V310.5H301.75V305.5ZM285.5 305.5H280.5V321.75H285.5H290.5V305.5H285.5ZM285.5 321.75V316.75H204.25V321.75V326.75H285.5V321.75ZM220.5 305.5V310.5H269.25V305.5V300.5H220.5V305.5ZM269.25 305.5H274.25V224.25H269.25H264.25V305.5H269.25ZM269.25 224.25V219.25H220.5V224.25V229.25H269.25V224.25ZM220.5 224.25H215.5V305.5H220.5H225.5V224.25H220.5ZM334.25 321.75H329.25V326.75H334.25V321.75ZM334.25 208V203H329.25V208H334.25ZM366.75 208H371.75V203H366.75V208ZM366.75 305.5H361.75V310.5H366.75V305.5ZM431.75 305.5H436.75V300.5H431.75V305.5ZM431.75 321.75V326.75H436.75V321.75H431.75ZM334.25 321.75H339.25V208H334.25H329.25V321.75H334.25ZM334.25 208V213H366.75V208V203H334.25V208ZM366.75 208H361.75V305.5H366.75H371.75V208H366.75ZM366.75 305.5V310.5H431.75V305.5V300.5H366.75V305.5ZM431.75 305.5H426.75V321.75H431.75H436.75V305.5H431.75ZM431.75 321.75V316.75H334.25V321.75V326.75H431.75V321.75ZM464.25 321.75H459.25V326.75H464.25V321.75ZM464.25 305.5V300.5H459.25V305.5H464.25ZM496.75 305.5V310.5H501.75V305.5H496.75ZM496.75 224.25H501.75V219.25H496.75V224.25ZM464.25 224.25H459.25V229.25H464.25V224.25ZM464.25 208V203H459.25V208H464.25ZM561.75 208H566.75V203H561.75V208ZM561.75 224.25V229.25H566.75V224.25H561.75ZM529.25 224.25V219.25H524.25V224.25H529.25ZM529.25 305.5H524.25V310.5H529.25V305.5ZM561.75 305.5H566.75V300.5H561.75V305.5ZM561.75 321.75V326.75H566.75V321.75H561.75ZM464.25 321.75H469.25V305.5H464.25H459.25V321.75H464.25ZM464.25 305.5V310.5H496.75V305.5V300.5H464.25V305.5ZM496.75 305.5H501.75V224.25H496.75H491.75V305.5H496.75ZM496.75 224.25V219.25H464.25V224.25V229.25H496.75V224.25ZM464.25 224.25H469.25V208H464.25H459.25V224.25H464.25ZM464.25 208V213H561.75V208V203H464.25V208ZM561.75 208H556.75V224.25H561.75H566.75V208H561.75ZM561.75 224.25V219.25H529.25V224.25V229.25H561.75V224.25ZM529.25 224.25H524.25V305.5H529.25H534.25V224.25H529.25ZM529.25 305.5V310.5H561.75V305.5V300.5H529.25V305.5ZM561.75 305.5H556.75V321.75H561.75H566.75V305.5H561.75ZM561.75 321.75V316.75H464.25V321.75V326.75H561.75V321.75ZM594.25 321.75H589.25V326.75H594.25V321.75ZM594.25 305.5H599.25V300.5H594.25V305.5ZM578 305.5H573V310.5H578V305.5ZM578 224.25V219.25H573V224.25H578ZM594.25 224.25V229.25H599.25V224.25H594.25ZM594.25 208V203H589.25V208H594.25ZM675.5 208H680.5V203H675.5V208ZM675.5 224.25H670.5V229.25H675.5V224.25ZM691.75 224.25H696.75V219.25H691.75V224.25ZM691.75 305.5V310.5H696.75V305.5H691.75ZM675.5 305.5V300.5H670.5V305.5H675.5ZM675.5 321.75V326.75H680.5V321.75H675.5ZM610.5 305.5H605.5V310.5H610.5V305.5ZM659.25 305.5V310.5H664.25V305.5H659.25ZM659.25 224.25H664.25V219.25H659.25V224.25ZM610.5 224.25V219.25H605.5V224.25H610.5ZM594.25 321.75H599.25V305.5H594.25H589.25V321.75H594.25ZM594.25 305.5V300.5H578V305.5V310.5H594.25V305.5ZM578 305.5H583V224.25H578H573V305.5H578ZM578 224.25V229.25H594.25V224.25V219.25H578V224.25ZM594.25 224.25H599.25V208H594.25H589.25V224.25H594.25ZM594.25 208V213H675.5V208V203H594.25V208ZM675.5 208H670.5V224.25H675.5H680.5V208H675.5ZM675.5 224.25V229.25H691.75V224.25V219.25H675.5V224.25ZM691.75 224.25H686.75V305.5H691.75H696.75V224.25H691.75ZM691.75 305.5V300.5H675.5V305.5V310.5H691.75V305.5ZM675.5 305.5H670.5V321.75H675.5H680.5V305.5H675.5ZM675.5 321.75V316.75H594.25V321.75V326.75H675.5V321.75ZM610.5 305.5V310.5H659.25V305.5V300.5H610.5V305.5ZM659.25 305.5H664.25V224.25H659.25H654.25V305.5H659.25ZM659.25 224.25V219.25H610.5V224.25V229.25H659.25V224.25ZM610.5 224.25H605.5V305.5H610.5H615.5V224.25H610.5Z" fill="black" mask="url(#path-1-outside-1_67_45)"/>
<g filter="url(#filter0_ii_67_45)">
<rect y="130" width="117" height="121" rx="16" fill="#D9D9D9" fill-opacity="0.1"/>
<rect x="0.5" y="130.5" width="116" height="120" rx="15.5" stroke="#0082A6"/>
<rect x="33" y="142" width="50" height="50" rx="25" fill="black"/>
<path d="M69.9167 159.417V161.583H68.8333V162.667H67.75V163.75H66.6667V164.833H65.5833V163.75H64.5V162.667H63.4167V161.583H62.3333V160.5H61.25V159.417H60.1667V158.333H61.25V157.25H62.3333V156.167H63.4167V155.083H65.5833V156.167H66.6667V157.25H67.75V158.333H68.8333V159.417H69.9167ZM63.4167 164.833V163.75H62.3333V162.667H61.25V161.583H60.1667V160.5H58V161.583H56.9167V162.667H55.8333V163.75H54.75V164.833H53.6667V165.917H52.5833V167H51.5V168.083H50.4167V169.167H49.3333V170.25H48.25V171.333H47.1667V172.417H46.0833V178.917H52.5833V177.833H53.6667V176.75H54.75V175.667H55.8333V174.583H56.9167V173.5H58V172.417H59.0833V171.333H60.1667V170.25H61.25V169.167H62.3333V168.083H63.4167V167H64.5V164.833H63.4167ZM61.25 167V168.083H60.1667V169.167H59.0833V170.25H58V171.333H56.9167V172.417H55.8333V173.5H54.75V174.583H53.6667V175.667H52.5833V176.75H48.25V172.417H49.3333V171.333H50.4167V170.25H51.5V169.167H52.5833V168.083H53.6667V167H54.75V165.917H55.8333V164.833H56.9167V163.75H58V162.667H60.1667V163.75H61.25V164.833H62.3333V167H61.25Z" fill="white"/>
<path d="M45.3143 224L41.2503 219.024V224H39.0103V212.832H41.2503V217.84L45.3143 212.832H48.0183L43.4103 218.368L48.1463 224H45.3143ZM51.8596 214.64V217.44H55.6196V219.216H51.8596V222.176H56.0996V224H49.6196V212.816H56.0996V214.64H51.8596ZM60.3753 214.64V217.44H64.1353V219.216H60.3753V222.176H64.6153V224H58.1353V212.816H64.6153V214.64H60.3753ZM74.7949 216.288C74.7949 216.885 74.6509 217.445 74.3629 217.968C74.0855 218.491 73.6429 218.912 73.0349 219.232C72.4375 219.552 71.6802 219.712 70.7629 219.712H68.8909V224H66.6509V212.832H70.7629C71.6269 212.832 72.3629 212.981 72.9709 213.28C73.5789 213.579 74.0322 213.989 74.3309 214.512C74.6402 215.035 74.7949 215.627 74.7949 216.288ZM70.6669 217.904C71.2855 217.904 71.7442 217.765 72.0429 217.488C72.3415 217.2 72.4909 216.8 72.4909 216.288C72.4909 215.2 71.8829 214.656 70.6669 214.656H68.8909V217.904H70.6669ZM21.0209 232.4C21.0209 231.301 21.2663 230.32 21.7569 229.456C22.2583 228.581 22.9356 227.904 23.7889 227.424C24.6529 226.933 25.6183 226.688 26.6849 226.688C27.9329 226.688 29.0263 227.008 29.9649 227.648C30.9036 228.288 31.5596 229.173 31.9329 230.304H29.3569C29.1009 229.771 28.7383 229.371 28.2689 229.104C27.8103 228.837 27.2769 228.704 26.6689 228.704C26.0183 228.704 25.4369 228.859 24.9249 229.168C24.4236 229.467 24.0289 229.893 23.7409 230.448C23.4636 231.003 23.3249 231.653 23.3249 232.4C23.3249 233.136 23.4636 233.787 23.7409 234.352C24.0289 234.907 24.4236 235.339 24.9249 235.648C25.4369 235.947 26.0183 236.096 26.6689 236.096C27.2769 236.096 27.8103 235.963 28.2689 235.696C28.7383 235.419 29.1009 235.013 29.3569 234.48H31.9329C31.5596 235.621 30.9036 236.512 29.9649 237.152C29.0369 237.781 27.9436 238.096 26.6849 238.096C25.6183 238.096 24.6529 237.856 23.7889 237.376C22.9356 236.885 22.2583 236.208 21.7569 235.344C21.2663 234.48 21.0209 233.499 21.0209 232.4ZM39.6062 238L37.1422 233.648H36.0862V238H33.8462V226.832H38.0382C38.9022 226.832 39.6382 226.987 40.2462 227.296C40.8542 227.595 41.3075 228.005 41.6062 228.528C41.9155 229.04 42.0702 229.616 42.0702 230.256C42.0702 230.992 41.8569 231.659 41.4302 232.256C41.0035 232.843 40.3689 233.248 39.5262 233.472L42.1982 238H39.6062ZM36.0862 231.968H37.9582C38.5662 231.968 39.0195 231.824 39.3182 231.536C39.6169 231.237 39.7662 230.827 39.7662 230.304C39.7662 229.792 39.6169 229.397 39.3182 229.12C39.0195 228.832 38.5662 228.688 37.9582 228.688H36.0862V231.968ZM46.3362 228.64V231.44H50.0962V233.216H46.3362V236.176H50.5762V238H44.0962V226.816H50.5762V228.64H46.3362ZM59.4598 235.872H55.0118L54.2758 238H51.9238L55.9398 226.816H58.5478L62.5638 238H60.1958L59.4598 235.872ZM58.8518 234.08L57.2358 229.408L55.6198 234.08H58.8518ZM71.6649 226.832V228.64H68.6889V238H66.4489V228.64H63.4729V226.832H71.6649ZM75.5393 226.832V238H73.2993V226.832H75.5393ZM87.7844 226.832L83.6884 238H80.9684L76.8724 226.832H79.2724L82.3444 235.712L85.4004 226.832H87.7844ZM91.3674 228.64V231.44H95.1274V233.216H91.3674V236.176H95.6074V238H89.1274V226.816H95.6074V228.64H91.3674Z" fill="black"/>
</g>
<g filter="url(#filter1_ii_67_45)">
<rect x="639" y="130" width="117" height="121" rx="16" fill="#D9D9D9" fill-opacity="0.1"/>
<rect x="639.5" y="130.5" width="116" height="120" rx="15.5" stroke="#0082A6"/>
<rect x="672" y="142" width="50" height="50" rx="25" fill="black"/>
<path fill-rule="evenodd" clip-rule="evenodd" d="M697.644 179.196L697.631 179.198L697.554 179.236L697.532 179.241L697.517 179.236L697.44 179.197C697.428 179.194 697.42 179.197 697.414 179.204L697.41 179.215L697.391 179.678L697.397 179.7L697.407 179.714L697.52 179.794L697.536 179.799L697.549 179.794L697.662 179.714L697.675 179.697L697.679 179.678L697.661 179.216C697.658 179.204 697.652 179.198 697.644 179.196ZM697.93 179.074L697.914 179.076L697.715 179.177L697.704 179.188L697.701 179.199L697.72 179.665L697.726 179.678L697.735 179.687L697.952 179.787C697.966 179.79 697.976 179.787 697.984 179.778L697.988 179.763L697.951 179.098C697.948 179.084 697.94 179.076 697.93 179.074ZM697.155 179.076C697.15 179.073 697.144 179.072 697.139 179.073C697.134 179.075 697.129 179.078 697.126 179.082L697.119 179.098L697.082 179.763C697.083 179.776 697.089 179.784 697.101 179.789L697.117 179.787L697.335 179.686L697.346 179.677L697.349 179.665L697.368 179.199L697.365 179.186L697.354 179.176L697.155 179.076Z" fill="white"/>
<path fill-rule="evenodd" clip-rule="evenodd" d="M697 158.333C694.701 158.333 692.497 159.246 690.872 160.872C689.246 162.497 688.333 164.701 688.333 167C688.333 169.299 689.246 171.503 690.872 173.128C692.497 174.754 694.701 175.667 697 175.667C699.299 175.667 701.503 174.754 703.128 173.128C704.754 171.503 705.667 169.299 705.667 167C705.667 164.701 704.754 162.497 703.128 160.872C701.503 159.246 699.299 158.333 697 158.333ZM686.167 167C686.167 161.017 691.017 156.167 697 156.167C702.983 156.167 707.833 161.017 707.833 167C707.833 172.983 702.983 177.833 697 177.833C691.017 177.833 686.167 172.983 686.167 167ZM693.208 164.833C692.997 164.833 692.727 164.968 692.552 165.319C692.422 165.573 692.196 165.766 691.925 165.855C691.653 165.944 691.357 165.922 691.102 165.794C690.846 165.666 690.652 165.442 690.56 165.171C690.469 164.901 690.489 164.605 690.615 164.348C691.087 163.403 692.031 162.667 693.208 162.667C694.386 162.667 695.328 163.403 695.802 164.348C695.928 164.605 695.948 164.901 695.856 165.171C695.765 165.442 695.571 165.666 695.315 165.794C695.059 165.922 694.764 165.944 694.492 165.855C694.22 165.766 693.995 165.573 693.865 165.319C693.689 164.968 693.421 164.833 693.208 164.833ZM700.792 164.833C700.58 164.833 700.311 164.968 700.135 165.319C700.072 165.447 699.984 165.562 699.877 165.656C699.769 165.75 699.644 165.822 699.509 165.868C699.373 165.913 699.23 165.932 699.087 165.922C698.945 165.912 698.805 165.873 698.678 165.809C698.55 165.745 698.436 165.657 698.343 165.548C698.249 165.44 698.178 165.314 698.134 165.179C698.089 165.043 698.072 164.899 698.083 164.757C698.094 164.614 698.133 164.475 698.198 164.348C698.672 163.403 699.614 162.667 700.792 162.667C701.969 162.667 702.912 163.403 703.385 164.348C703.511 164.605 703.531 164.901 703.44 165.171C703.348 165.442 703.154 165.666 702.898 165.794C702.643 165.922 702.347 165.944 702.075 165.855C701.804 165.766 701.578 165.573 701.448 165.319C701.273 164.968 701.004 164.833 700.792 164.833ZM693.321 169.533C693.415 169.426 693.529 169.339 693.657 169.276C693.785 169.214 693.924 169.177 694.066 169.168C694.208 169.159 694.351 169.179 694.485 169.225C694.62 169.271 694.744 169.343 694.851 169.438C695.425 169.945 696.176 170.25 697 170.25C697.824 170.25 698.576 169.945 699.149 169.438C699.365 169.247 699.647 169.151 699.934 169.168C700.221 169.186 700.489 169.317 700.679 169.533C700.869 169.748 700.966 170.031 700.948 170.317C700.93 170.604 700.799 170.872 700.584 171.063C699.595 171.937 698.32 172.419 697 172.417C695.68 172.419 694.405 171.937 693.416 171.063C693.31 170.968 693.222 170.854 693.16 170.726C693.097 170.598 693.061 170.459 693.052 170.317C693.043 170.175 693.062 170.033 693.108 169.898C693.155 169.764 693.227 169.64 693.321 169.533Z" fill="white"/>
<path d="M682.155 224.112C681.377 224.112 680.673 223.979 680.043 223.712C679.425 223.445 678.934 223.061 678.571 222.56C678.209 222.059 678.022 221.467 678.011 220.784H680.411C680.443 221.243 680.603 221.605 680.891 221.872C681.19 222.139 681.595 222.272 682.107 222.272C682.63 222.272 683.041 222.149 683.339 221.904C683.638 221.648 683.787 221.317 683.787 220.912C683.787 220.581 683.686 220.309 683.483 220.096C683.281 219.883 683.025 219.717 682.715 219.6C682.417 219.472 682.001 219.333 681.467 219.184C680.742 218.971 680.15 218.763 679.691 218.56C679.243 218.347 678.854 218.032 678.523 217.616C678.203 217.189 678.043 216.624 678.043 215.92C678.043 215.259 678.209 214.683 678.539 214.192C678.87 213.701 679.334 213.328 679.931 213.072C680.529 212.805 681.211 212.672 681.979 212.672C683.131 212.672 684.065 212.955 684.779 213.52C685.505 214.075 685.905 214.853 685.979 215.856H683.515C683.494 215.472 683.329 215.157 683.019 214.912C682.721 214.656 682.321 214.528 681.819 214.528C681.382 214.528 681.03 214.64 680.763 214.864C680.507 215.088 680.379 215.413 680.379 215.84C680.379 216.139 680.475 216.389 680.667 216.592C680.87 216.784 681.115 216.944 681.403 217.072C681.702 217.189 682.118 217.328 682.651 217.488C683.377 217.701 683.969 217.915 684.427 218.128C684.886 218.341 685.281 218.661 685.611 219.088C685.942 219.515 686.107 220.075 686.107 220.768C686.107 221.365 685.953 221.92 685.643 222.432C685.334 222.944 684.881 223.355 684.283 223.664C683.686 223.963 682.977 224.112 682.155 224.112ZM695.649 212.832V214.64H692.673V224H690.433V214.64H687.457V212.832H695.649ZM704.132 221.872H699.684L698.948 224H696.596L700.612 212.816H703.22L707.236 224H704.868L704.132 221.872ZM703.524 220.08L701.908 215.408L700.292 220.08H703.524ZM717.617 212.832L713.841 220.112V224H711.601V220.112L707.809 212.832H710.337L712.737 217.936L715.121 212.832H717.617ZM681.587 226.832V238H679.347V233.248H674.563V238H672.323V226.832H674.563V231.424H679.347V226.832H681.587ZM690.64 235.872H686.192L685.456 238H683.104L687.12 226.816H689.728L693.744 238H691.376L690.64 235.872ZM690.032 234.08L688.416 229.408L686.799 234.08H690.032ZM703.389 230.288C703.389 230.885 703.245 231.445 702.957 231.968C702.679 232.491 702.237 232.912 701.629 233.232C701.031 233.552 700.274 233.712 699.357 233.712H697.485V238H695.245V226.832H699.357C700.221 226.832 700.957 226.981 701.565 227.28C702.173 227.579 702.626 227.989 702.925 228.512C703.234 229.035 703.389 229.627 703.389 230.288ZM699.261 231.904C699.879 231.904 700.338 231.765 700.637 231.488C700.935 231.2 701.085 230.8 701.085 230.288C701.085 229.2 700.477 228.656 699.261 228.656H697.485V231.904H699.261ZM713.123 230.288C713.123 230.885 712.979 231.445 712.691 231.968C712.414 232.491 711.971 232.912 711.363 233.232C710.766 233.552 710.008 233.712 709.091 233.712H707.219V238H704.979V226.832H709.091C709.955 226.832 710.691 226.981 711.299 227.28C711.907 227.579 712.36 227.989 712.659 228.512C712.968 229.035 713.123 229.627 713.123 230.288ZM708.995 231.904C709.614 231.904 710.072 231.765 710.371 231.488C710.67 231.2 710.819 230.8 710.819 230.288C710.819 229.2 710.211 228.656 708.995 228.656H707.219V231.904H708.995ZM723.593 226.832L719.817 234.112V238H717.577V234.112L713.785 226.832H716.313L718.713 231.936L721.097 226.832H723.593Z" fill="black"/>
</g>
<path d="M271.525 14.57L264.7 39H258.925L254.34 21.605L249.545 39L243.805 39.035L237.225 14.57H242.475L246.78 33.54L251.75 14.57H257.21L261.9 33.435L266.24 14.57H271.525ZM279.624 18.525V24.65H287.849V28.535H279.624V35.01H288.899V39H274.724V14.535H288.899V18.525H279.624ZM298.252 35.115H306.302V39H293.352V14.57H298.252V35.115ZM308.226 26.75C308.226 24.3467 308.763 22.2 309.836 20.31C310.933 18.3967 312.415 16.915 314.281 15.865C316.171 14.7917 318.283 14.255 320.616 14.255C323.346 14.255 325.738 14.955 327.791 16.355C329.845 17.755 331.28 19.6917 332.096 22.165H326.461C325.901 20.9983 325.108 20.1233 324.081 19.54C323.078 18.9567 321.911 18.665 320.581 18.665C319.158 18.665 317.886 19.0033 316.766 19.68C315.67 20.3333 314.806 21.2667 314.176 22.48C313.57 23.6933 313.266 25.1167 313.266 26.75C313.266 28.36 313.57 29.7833 314.176 31.02C314.806 32.2333 315.67 33.1783 316.766 33.855C317.886 34.5083 319.158 34.835 320.581 34.835C321.911 34.835 323.078 34.5433 324.081 33.96C325.108 33.3533 325.901 32.4667 326.461 31.3H332.096C331.28 33.7967 329.845 35.745 327.791 37.145C325.761 38.5217 323.37 39.21 320.616 39.21C318.283 39.21 316.171 38.685 314.281 37.635C312.415 36.5617 310.933 35.08 309.836 33.19C308.763 31.3 308.226 29.1533 308.226 26.75ZM347.622 39.245C345.335 39.245 343.235 38.7083 341.322 37.635C339.408 36.5617 337.892 35.08 336.772 33.19C335.652 31.2767 335.092 29.1183 335.092 26.715C335.092 24.335 335.652 22.2 336.772 20.31C337.892 18.3967 339.408 16.9033 341.322 15.83C343.235 14.7567 345.335 14.22 347.622 14.22C349.932 14.22 352.032 14.7567 353.922 15.83C355.835 16.9033 357.34 18.3967 358.437 20.31C359.557 22.2 360.117 24.335 360.117 26.715C360.117 29.1183 359.557 31.2767 358.437 33.19C357.34 35.08 355.835 36.5617 353.922 37.635C352.008 38.7083 349.908 39.245 347.622 39.245ZM347.622 34.87C349.092 34.87 350.387 34.5433 351.507 33.89C352.627 33.2133 353.502 32.2567 354.132 31.02C354.762 29.7833 355.077 28.3483 355.077 26.715C355.077 25.0817 354.762 23.6583 354.132 22.445C353.502 21.2083 352.627 20.2633 351.507 19.61C350.387 18.9567 349.092 18.63 347.622 18.63C346.152 18.63 344.845 18.9567 343.702 19.61C342.582 20.2633 341.707 21.2083 341.077 22.445C340.447 23.6583 340.132 25.0817 340.132 26.715C340.132 28.3483 340.447 29.7833 341.077 31.02C341.707 32.2567 342.582 33.2133 343.702 33.89C344.845 34.5433 346.152 34.87 347.622 34.87ZM390.397 14.57V39H385.497V23.11L378.952 39H375.242L368.662 23.11V39H363.762V14.57H369.327L377.097 32.735L384.867 14.57H390.397ZM400.142 18.525V24.65H408.367V28.535H400.142V35.01H409.417V39H395.242V14.535H409.417V18.525H400.142ZM438.834 14.57V18.525H432.324V39H427.424V18.525H420.914V14.57H438.834ZM453.75 39.245C451.463 39.245 449.363 38.7083 447.45 37.635C445.536 36.5617 444.02 35.08 442.9 33.19C441.78 31.2767 441.22 29.1183 441.22 26.715C441.22 24.335 441.78 22.2 442.9 20.31C444.02 18.3967 445.536 16.9033 447.45 15.83C449.363 14.7567 451.463 14.22 453.75 14.22C456.06 14.22 458.16 14.7567 460.05 15.83C461.963 16.9033 463.468 18.3967 464.565 20.31C465.685 22.2 466.245 24.335 466.245 26.715C466.245 29.1183 465.685 31.2767 464.565 33.19C463.468 35.08 461.963 36.5617 460.05 37.635C458.136 38.7083 456.036 39.245 453.75 39.245ZM453.75 34.87C455.22 34.87 456.515 34.5433 457.635 33.89C458.755 33.2133 459.63 32.2567 460.26 31.02C460.89 29.7833 461.205 28.3483 461.205 26.715C461.205 25.0817 460.89 23.6583 460.26 22.445C459.63 21.2083 458.755 20.2633 457.635 19.61C456.515 18.9567 455.22 18.63 453.75 18.63C452.28 18.63 450.973 18.9567 449.83 19.61C448.71 20.2633 447.835 21.2083 447.205 22.445C446.575 23.6583 446.26 25.0817 446.26 26.715C446.26 28.3483 446.575 29.7833 447.205 31.02C447.835 32.2567 448.71 33.2133 449.83 33.89C450.973 34.5433 452.28 34.87 453.75 34.87ZM504.865 14.57V39H499.965V23.11L493.42 39H489.71L483.13 23.11V39H478.23V14.57H483.795L491.565 32.735L499.335 14.57H504.865ZM529.134 14.57L520.874 30.495V39H515.974V30.495L507.679 14.57H513.209L518.459 25.735L523.674 14.57H529.134Z" fill="black"/>
<g filter="url(#filter2_ii_67_45)">
<rect x="276" y="353" width="213" height="34" rx="16" fill="#D9D9D9" fill-opacity="0.1"/>
<rect x="276.5" y="353.5" width="212" height="33" rx="15.5" stroke="#0082A6"/>
<path d="M313.822 363.936V365.97H308.584V369.192H312.598V371.19H308.584V376.5H306.064V363.936H313.822ZM322.089 376.5L319.317 371.604H318.129V376.5H315.609V363.936H320.325C321.297 363.936 322.125 364.11 322.809 364.458C323.493 364.794 324.003 365.256 324.339 365.844C324.687 366.42 324.861 367.068 324.861 367.788C324.861 368.616 324.621 369.366 324.141 370.038C323.661 370.698 322.947 371.154 321.999 371.406L325.005 376.5H322.089ZM318.129 369.714H320.235C320.919 369.714 321.429 369.552 321.765 369.228C322.101 368.892 322.269 368.43 322.269 367.842C322.269 367.266 322.101 366.822 321.765 366.51C321.429 366.186 320.919 366.024 320.235 366.024H318.129V369.714ZM329.66 365.97V369.12H333.89V371.118H329.66V374.448H334.43V376.5H327.14V363.918H334.43V365.97H329.66ZM341.059 376.626C340.183 376.626 339.391 376.476 338.683 376.176C337.987 375.876 337.435 375.444 337.027 374.88C336.619 374.316 336.409 373.65 336.397 372.882H339.097C339.133 373.398 339.313 373.806 339.637 374.106C339.973 374.406 340.429 374.556 341.005 374.556C341.593 374.556 342.055 374.418 342.391 374.142C342.727 373.854 342.895 373.482 342.895 373.026C342.895 372.654 342.781 372.348 342.553 372.108C342.325 371.868 342.037 371.682 341.689 371.55C341.353 371.406 340.885 371.25 340.285 371.082C339.469 370.842 338.803 370.608 338.287 370.38C337.783 370.14 337.345 369.786 336.973 369.318C336.613 368.838 336.433 368.202 336.433 367.41C336.433 366.666 336.619 366.018 336.991 365.466C337.363 364.914 337.885 364.494 338.557 364.206C339.229 363.906 339.997 363.756 340.861 363.756C342.157 363.756 343.207 364.074 344.011 364.71C344.827 365.334 345.277 366.21 345.361 367.338H342.589C342.565 366.906 342.379 366.552 342.031 366.276C341.695 365.988 341.245 365.844 340.681 365.844C340.189 365.844 339.793 365.97 339.493 366.222C339.205 366.474 339.061 366.84 339.061 367.32C339.061 367.656 339.169 367.938 339.385 368.166C339.613 368.382 339.889 368.562 340.213 368.706C340.549 368.838 341.017 368.994 341.617 369.174C342.433 369.414 343.099 369.654 343.615 369.894C344.131 370.134 344.575 370.494 344.947 370.974C345.319 371.454 345.505 372.084 345.505 372.864C345.505 373.536 345.331 374.16 344.983 374.736C344.635 375.312 344.125 375.774 343.453 376.122C342.781 376.458 341.983 376.626 341.059 376.626ZM358.111 363.936V376.5H355.591V371.154H350.209V376.5H347.689V363.936H350.209V369.102H355.591V363.936H358.111ZM373.629 367.716C373.341 367.188 372.945 366.786 372.441 366.51C371.937 366.234 371.349 366.096 370.677 366.096C369.933 366.096 369.273 366.264 368.697 366.6C368.121 366.936 367.671 367.416 367.347 368.04C367.023 368.664 366.861 369.384 366.861 370.2C366.861 371.04 367.023 371.772 367.347 372.396C367.683 373.02 368.145 373.5 368.733 373.836C369.321 374.172 370.005 374.34 370.785 374.34C371.745 374.34 372.531 374.088 373.143 373.584C373.755 373.068 374.157 372.354 374.349 371.442H370.029V369.516H376.833V371.712C376.665 372.588 376.305 373.398 375.753 374.142C375.201 374.886 374.487 375.486 373.611 375.942C372.747 376.386 371.775 376.608 370.695 376.608C369.483 376.608 368.385 376.338 367.401 375.798C366.429 375.246 365.661 374.484 365.097 373.512C364.545 372.54 364.269 371.436 364.269 370.2C364.269 368.964 364.545 367.86 365.097 366.888C365.661 365.904 366.429 365.142 367.401 364.602C368.385 364.05 369.477 363.774 370.677 363.774C372.093 363.774 373.323 364.122 374.367 364.818C375.411 365.502 376.131 366.468 376.527 367.716H373.629ZM385.177 376.5L382.405 371.604H381.217V376.5H378.697V363.936H383.413C384.385 363.936 385.213 364.11 385.897 364.458C386.581 364.794 387.091 365.256 387.427 365.844C387.775 366.42 387.949 367.068 387.949 367.788C387.949 368.616 387.709 369.366 387.229 370.038C386.749 370.698 386.035 371.154 385.087 371.406L388.093 376.5H385.177ZM381.217 369.714H383.323C384.007 369.714 384.517 369.552 384.853 369.228C385.189 368.892 385.357 368.43 385.357 367.842C385.357 367.266 385.189 366.822 384.853 366.51C384.517 366.186 384.007 366.024 383.323 366.024H381.217V369.714ZM397.932 374.106H392.928L392.1 376.5H389.454L393.972 363.918H396.906L401.424 376.5H398.76L397.932 374.106ZM397.248 372.09L395.43 366.834L393.612 372.09H397.248ZM407.505 363.936C408.825 363.936 409.983 364.194 410.979 364.71C411.987 365.226 412.761 365.964 413.301 366.924C413.853 367.872 414.129 368.976 414.129 370.236C414.129 371.496 413.853 372.6 413.301 373.548C412.761 374.484 411.987 375.21 410.979 375.726C409.983 376.242 408.825 376.5 407.505 376.5H403.113V363.936H407.505ZM407.415 374.358C408.735 374.358 409.755 373.998 410.475 373.278C411.195 372.558 411.555 371.544 411.555 370.236C411.555 368.928 411.195 367.908 410.475 367.176C409.755 366.432 408.735 366.06 407.415 366.06H405.633V374.358H407.415ZM418.499 363.936V371.712C418.499 372.564 418.721 373.218 419.165 373.674C419.609 374.118 420.233 374.34 421.037 374.34C421.853 374.34 422.483 374.118 422.927 373.674C423.371 373.218 423.593 372.564 423.593 371.712V363.936H426.131V371.694C426.131 372.762 425.897 373.668 425.429 374.412C424.973 375.144 424.355 375.696 423.575 376.068C422.807 376.44 421.949 376.626 421.001 376.626C420.065 376.626 419.213 376.44 418.445 376.068C417.689 375.696 417.089 375.144 416.645 374.412C416.201 373.668 415.979 372.762 415.979 371.694V363.936H418.499ZM436.27 374.106H431.266L430.438 376.5H427.792L432.31 363.918H435.244L439.762 376.5H437.098L436.27 374.106ZM435.586 372.09L433.768 366.834L431.95 372.09H435.586ZM450.001 363.936V365.97H446.653V376.5H444.133V365.97H440.785V363.936H450.001ZM454.36 365.97V369.12H458.59V371.118H454.36V374.448H459.13V376.5H451.84V363.918H459.13V365.97H454.36Z" fill="black"/>
</g>
<defs>
<filter id="filter0_ii_67_45" x="-40" y="90" width="197" height="201" filterUnits="userSpaceOnUse" color-interpolation-filters="sRGB">
<feFlood flood-opacity="0" result="BackgroundImageFix"/>
<feBlend mode="normal" in="SourceGraphic" in2="BackgroundImageFix" result="shape"/>
<feColorMatrix in="SourceAlpha" type="matrix" values="0 0 0 0 0 0 0 0 0 0 0 0 0 0 0 0 0 0 127 0" result="hardAlpha"/>
<feOffset dx="-8.1" dy="8.1"/>
<feGaussianBlur stdDeviation="4.05"/>
<feComposite in2="hardAlpha" operator="arithmetic" k2="-1" k3="1"/>
<feColorMatrix type="matrix" values="0 0 0 0 1 0 0 0 0 1 0 0 0 0 1 0 0 0 0.1 0"/>
<feBlend mode="normal" in2="shape" result="effect1_innerShadow_67_45"/>
<feColorMatrix in="SourceAlpha" type="matrix" values="0 0 0 0 0 0 0 0 0 0 0 0 0 0 0 0 0 0 127 0" result="hardAlpha"/>
<feOffset dx="8.1" dy="-8.1"/>
<feGaussianBlur stdDeviation="4.05"/>
<feComposite in2="hardAlpha" operator="arithmetic" k2="-1" k3="1"/>
<feColorMatrix type="matrix" values="0 0 0 0 0.646745 0 0 0 0 0.646745 0 0 0 0 0.646745 0 0 0 0.1 0"/>
<feBlend mode="normal" in2="effect1_innerShadow_67_45" result="effect2_innerShadow_67_45"/>
</filter>
<filter id="filter1_ii_67_45" x="599" y="90" width="197" height="201" filterUnits="userSpaceOnUse" color-interpolation-filters="sRGB">
<feFlood flood-opacity="0" result="BackgroundImageFix"/>
<feBlend mode="normal" in="SourceGraphic" in2="BackgroundImageFix" result="shape"/>
<feColorMatrix in="SourceAlpha" type="matrix" values="0 0 0 0 0 0 0 0 0 0 0 0 0 0 0 0 0 0 127 0" result="hardAlpha"/>
<feOffset dx="-8.1" dy="8.1"/>
<feGaussianBlur stdDeviation="4.05"/>
<feComposite in2="hardAlpha" operator="arithmetic" k2="-1" k3="1"/>
<feColorMatrix type="matrix" values="0 0 0 0 1 0 0 0 0 1 0 0 0 0 1 0 0 0 0.1 0"/>
<feBlend mode="normal" in2="shape" result="effect1_innerShadow_67_45"/>
<feColorMatrix in="SourceAlpha" type="matrix" values="0 0 0 0 0 0 0 0 0 0 0 0 0 0 0 0 0 0 127 0" result="hardAlpha"/>
<feOffset dx="8.1" dy="-8.1"/>
<feGaussianBlur stdDeviation="4.05"/>
<feComposite in2="hardAlpha" operator="arithmetic" k2="-1" k3="1"/>
<feColorMatrix type="matrix" values="0 0 0 0 0.646745 0 0 0 0 0.646745 0 0 0 0 0.646745 0 0 0 0.1 0"/>
<feBlend mode="normal" in2="effect1_innerShadow_67_45" result="effect2_innerShadow_67_45"/>
</filter>
<filter id="filter2_ii_67_45" x="259.8" y="336.8" width="245.4" height="66.4" filterUnits="userSpaceOnUse" color-interpolation-filters="sRGB">
<feFlood flood-opacity="0" result="BackgroundImageFix"/>
<feBlend mode="normal" in="SourceGraphic" in2="BackgroundImageFix" result="shape"/>
<feColorMatrix in="SourceAlpha" type="matrix" values="0 0 0 0 0 0 0 0 0 0 0 0 0 0 0 0 0 0 127 0" result="hardAlpha"/>
<feOffset dx="-8.1" dy="8.1"/>
<feGaussianBlur stdDeviation="4.05"/>
<feComposite in2="hardAlpha" operator="arithmetic" k2="-1" k3="1"/>
<feColorMatrix type="matrix" values="0 0 0 0 1 0 0 0 0 1 0 0 0 0 1 0 0 0 0.1 0"/>
<feBlend mode="normal" in2="shape" result="effect1_innerShadow_67_45"/>
<feColorMatrix in="SourceAlpha" type="matrix" values="0 0 0 0 0 0 0 0 0 0 0 0 0 0 0 0 0 0 127 0" result="hardAlpha"/>
<feOffset dx="8.1" dy="-8.1"/>
<feGaussianBlur stdDeviation="4.05"/>
<feComposite in2="hardAlpha" operator="arithmetic" k2="-1" k3="1"/>
<feColorMatrix type="matrix" values="0 0 0 0 0.646745 0 0 0 0 0.646745 0 0 0 0 0.646745 0 0 0 0.1 0"/>
<feBlend mode="normal" in2="effect1_innerShadow_67_45" result="effect2_innerShadow_67_45"/>
</filter>
</defs>
</svg>
