<svg width="138" height="73" viewBox="0 0 138 73" fill="none" xmlns="http://www.w3.org/2000/svg">
<g clip-path="url(#clip0_38_23)">
<path d="M69 72.7837C107.108 72.7837 138 56.4905 138 36.3919C138 16.2932 107.108 0 69 0C30.8924 0 0 16.2932 0 36.3919C0 56.4905 30.8924 72.7837 69 72.7837Z" fill="url(#paint0_radial_38_23)"/>
<path d="M69 70.08C105.619 70.08 135.305 54.9973 135.305 36.3919C135.305 17.7864 105.619 2.70374 69 2.70374C32.3809 2.70374 2.69531 17.7864 2.69531 36.3919C2.69531 54.9973 32.3809 70.08 69 70.08Z" fill="#6181B6"/>
<path d="M82.4227 47.3149L85.711 30.3356C86.4657 26.4963 85.8188 23.6304 83.8782 21.846C81.9914 20.1156 78.7571 19.2504 74.0133 19.2504H68.2992L69.9164 10.8149C69.9703 10.4904 69.9164 10.166 69.7008 9.89561C69.4852 9.62524 69.2157 9.51709 68.8922 9.51709H61.0219C60.4828 9.51709 60.0516 9.89561 59.9438 10.3823L56.4399 28.3889C56.1164 26.3341 55.3618 24.6038 54.068 23.1978C51.75 20.5482 48.1383 19.1963 43.2328 19.1963H28.0852C27.5461 19.1963 27.1149 19.5749 27.0071 20.0615L19.9453 56.6156C19.8914 56.9401 19.9453 57.2645 20.161 57.5349C20.3766 57.8052 20.6461 57.9134 20.9696 57.9134H28.8938C29.4328 57.9134 29.8641 57.5349 29.9719 57.0482L31.6969 48.2341H37.5727C40.6453 48.2341 43.2868 47.9097 45.2813 47.2608C47.3836 46.5578 49.2703 45.4223 50.9414 43.8541C52.2891 42.6104 53.4211 41.2045 54.2836 39.6904L52.8821 46.9904C52.8282 47.3149 52.8821 47.6393 53.0977 47.9097C53.3133 48.1801 53.5828 48.2882 53.9063 48.2882H61.7766C62.3157 48.2882 62.7469 47.9097 62.8547 47.423L66.736 27.4156H72.1266C74.4446 27.4156 75.0914 27.8482 75.3071 28.0645C75.4688 28.2267 75.7922 28.8756 75.4149 30.8763L72.2883 47.0445C72.2344 47.3689 72.2883 47.6934 72.5039 47.9638C72.7196 48.2341 72.9891 48.3423 73.3125 48.3423H81.3985C81.8836 48.1801 82.3149 47.8015 82.4227 47.3149ZM45.9821 33.2556C45.4969 35.7971 44.5805 37.6356 43.2328 38.663C41.8852 39.6904 39.675 40.2312 36.7641 40.2312H33.2602L35.7938 27.1452H40.3219C43.6641 27.1452 45.0118 27.8482 45.5508 28.443C46.2516 29.3082 46.4133 30.9845 45.9821 33.2556ZM116.06 23.1978C113.742 20.5482 110.131 19.1963 105.225 19.1963H89.9696C89.4305 19.1963 88.9992 19.5749 88.8914 20.0615L81.8297 56.5615C81.7758 56.886 81.8297 57.2104 82.0453 57.4808C82.261 57.7512 82.5305 57.8593 82.8539 57.8593H90.7782C91.3172 57.8593 91.7485 57.4808 91.8563 56.9941L93.5813 48.1801H99.4571C102.53 48.1801 105.171 47.8556 107.166 47.2067C109.268 46.5038 111.155 45.3682 112.826 43.8001C114.227 42.5023 115.413 41.0423 116.276 39.4741C117.138 37.906 117.785 36.1756 118.163 34.283C119.079 29.5786 118.378 25.9015 116.06 23.1978ZM107.813 33.2556C107.327 35.7971 106.411 37.6356 105.063 38.663C103.716 39.6904 101.506 40.2312 98.5946 40.2312H95.0907L97.6243 27.1452H102.152C105.495 27.1452 106.842 27.8482 107.381 28.443C108.136 29.3082 108.298 30.9845 107.813 33.2556Z" fill="white"/>
<path d="M40.3219 26.0637C43.3406 26.0637 45.3352 26.6044 46.3594 27.74C47.3836 28.8755 47.5992 30.7681 47.0602 33.4718C46.5211 36.2837 45.443 38.3385 43.8797 39.5281C42.3164 40.7178 39.9445 41.3126 36.7641 41.3126H31.9664L34.9313 26.0637H40.3219ZM21.0234 56.7778H28.9477L30.8344 47.0985H37.6266C40.6453 47.0985 43.0711 46.7741 45.0117 46.1252C46.9523 45.4763 48.6773 44.4489 50.2945 42.9348C51.6422 41.6911 52.7203 40.3393 53.5289 38.8793C54.3375 37.4193 54.9305 35.797 55.2539 34.0126C56.1164 29.6867 55.4695 26.3341 53.3672 23.9007C51.2648 21.4674 47.9227 20.2778 43.3406 20.2778H28.0852L21.0234 56.7778ZM61.0758 10.5985H68.9461L67.0594 20.2778H74.0672C78.4875 20.2778 81.5063 21.0348 83.1773 22.603C84.8484 24.1711 85.3336 26.6585 84.6867 30.1193L81.3984 47.0985H73.4203L76.5469 30.9304C76.9242 29.0918 76.7625 27.8481 76.1695 27.1993C75.5766 26.5504 74.2289 26.1718 72.2344 26.1718H65.9273L61.8844 47.0985H54.0141L61.0758 10.5985ZM102.152 26.0637C105.171 26.0637 107.166 26.6044 108.19 27.74C109.214 28.8755 109.43 30.7681 108.891 33.4718C108.352 36.2837 107.273 38.3385 105.71 39.5281C104.147 40.7178 101.775 41.3126 98.5945 41.3126H93.7969L96.7617 26.0637H102.152ZM82.8539 56.7778H90.7781L92.6648 47.0985H99.457C102.476 47.0985 104.902 46.7741 106.842 46.1252C108.783 45.4763 110.508 44.4489 112.125 42.9348C113.473 41.6911 114.551 40.3393 115.359 38.8793C116.168 37.4193 116.761 35.797 117.084 34.0126C117.947 29.6867 117.3 26.3341 115.198 23.9007C113.095 21.4674 109.753 20.2778 105.171 20.2778H89.9156L82.8539 56.7778Z" fill="#000004"/>
</g>
<defs>
<radialGradient id="paint0_radial_38_23" cx="0" cy="0" r="1" gradientUnits="userSpaceOnUse" gradientTransform="translate(41.4278 12.798) scale(90.6139 90.896)">
<stop stop-color="white"/>
<stop offset="0.5" stop-color="#4C6B97"/>
<stop offset="1" stop-color="#231F20"/>
</radialGradient>
<clipPath id="clip0_38_23">
<rect width="138" height="73" fill="white"/>
</clipPath>
</defs>
</svg>
