<svg width="88" height="98" viewBox="0 0 88 98" fill="none" xmlns="http://www.w3.org/2000/svg">
<g clip-path="url(#clip0_38_58)">
<path d="M8.69844 88.1586L0.84375 0.0562744H87.1563L79.2938 88.1453L43.9477 97.9446L8.69844 88.1586Z" fill="#1572B6"/>
<path d="M44.0007 90.4547L72.5624 82.536L79.282 7.2594H44.0007V90.4547Z" fill="#33A9DC"/>
<path d="M44.0007 39.1789H58.2992L59.2867 28.1141H44.0007V17.3086H71.096L70.8367 20.2078L68.1804 49.9844H44.0007V39.1789Z" fill="white"/>
<path d="M44.0647 67.2414L44.0171 67.2555L31.9835 64.0063L31.214 55.3883H20.3687L21.8819 72.3547L44.0155 78.4977L44.0647 78.4836V67.2414Z" fill="#EBEBEB"/>
<path d="M57.3805 49.5273L56.0789 63.9977L44.0273 67.2508V78.493L66.1789 72.3539L66.3414 70.5281L68.2211 49.5273H57.3805Z" fill="white"/>
<path d="M44.0374 17.3086V28.1141H17.9374L17.721 25.6859L17.2288 20.2078L16.9702 17.3086H44.0374ZM44.0007 39.1805V49.9859H32.1187L31.9022 47.5578L31.4093 42.0797L31.1515 39.1805H44.0007Z" fill="#EBEBEB"/>
</g>
<defs>
<clipPath id="clip0_38_58">
<rect width="86.3125" height="97.8883" fill="white" transform="translate(0.84375 0.0562744)"/>
</clipPath>
</defs>
</svg>
