<svg width="100" height="98" viewBox="0 0 100 98" fill="none" xmlns="http://www.w3.org/2000/svg">
<g clip-path="url(#clip0_38_55)">
<path d="M83.3984 0H16.6016C7.43277 0 0 7.43277 0 16.6016V80.8984C0 90.0672 7.43277 97.5 16.6016 97.5H83.3984C92.5672 97.5 100 90.0672 100 80.8984V16.6016C100 7.43277 92.5672 0 83.3984 0Z" fill="#330000"/>
<path d="M48.4586 58.5118H32.9625L29.8094 68.3059C29.7665 68.4846 29.6626 68.6426 29.5156 68.7529C29.3687 68.8631 29.1878 68.9186 29.0043 68.9098H21.1555C20.7081 68.9098 20.5516 68.6637 20.686 68.1715L34.1028 29.5317C34.2369 29.1293 34.371 28.671 34.5051 28.1567C34.6809 27.2614 34.7707 26.352 34.7735 25.4399C34.7643 25.3761 34.7702 25.311 34.7905 25.2499C34.8109 25.1887 34.8452 25.1332 34.8908 25.0876C34.9363 25.042 34.9919 25.0076 35.053 24.9872C35.1141 24.9668 35.1792 24.9609 35.243 24.97H45.9094C46.2219 24.97 46.4008 25.0819 46.4461 25.3059L61.6738 68.2387C61.808 68.6866 61.6738 68.9103 61.2715 68.9098H52.5504C52.4007 68.9262 52.2501 68.8876 52.1267 68.8012C52.0034 68.7148 51.9156 68.5866 51.8797 68.4403L48.4586 58.5118ZM35.3774 50.0594H45.9766L45.8254 49.5606L45.5828 48.7708L45.4098 48.2161L45.1336 47.3426L44.5465 45.504L44.0301 43.8739L42.6891 39.6278C42.3553 38.5723 42.035 37.5125 41.7281 36.4489L41.4828 35.5856L41.1961 34.5649L40.7586 32.9829L40.6766 32.6848H40.6098C40.274 34.295 39.8653 35.8891 39.3848 37.4622L38.3895 40.6637L37.8418 42.4325L37.2891 44.2231C37.1893 44.5465 37.0897 44.8663 36.9903 45.1825L36.6934 46.1192L36.3981 47.034L36.1043 47.9262L35.8121 48.7961C35.7153 49.0826 35.6185 49.3652 35.5219 49.6438L35.3774 50.0594ZM70.7293 32.0809C70.0451 32.1083 69.3629 31.991 68.7271 31.7367C68.0914 31.4824 67.5164 31.0968 67.0399 30.6051C66.5649 30.0919 66.1959 29.4899 65.9541 28.8337C65.7124 28.1775 65.6025 27.48 65.6309 26.7813C65.6066 26.0895 65.7284 25.4004 65.9885 24.759C66.2486 24.1175 66.641 23.5381 67.1403 23.0586C68.1032 22.1343 69.3856 21.617 70.7203 21.6145L70.8633 21.6161C72.4735 21.6161 73.737 22.0968 74.6539 23.0583C75.1166 23.558 75.4762 24.144 75.7122 24.7829C75.9481 25.4217 76.0557 26.1008 76.0289 26.7813C76.0573 27.4829 75.9443 28.183 75.6965 28.84C75.4487 29.497 75.0713 30.0974 74.5867 30.6055C74.0977 31.0875 73.5171 31.4668 72.8793 31.721C72.2415 31.9753 71.5592 32.0994 70.8727 32.086L70.7293 32.0809ZM66.1004 68.2387V36.1731C66.1002 35.7705 66.2791 35.5692 66.6371 35.5692H74.8887C75.2462 35.5692 75.4252 35.7705 75.4254 36.1731V68.2387C75.4254 68.6866 75.2465 68.9103 74.8887 68.9098H66.7043C66.3231 68.9098 66.1224 68.709 66.1024 68.3075L66.1004 68.2387Z" fill="#FF9A00"/>
</g>
<defs>
<clipPath id="clip0_38_55">
<rect width="100" height="97.6562" fill="white"/>
</clipPath>
</defs>
</svg>
