<svg width="100" height="80" viewBox="0 0 100 80" fill="none" xmlns="http://www.w3.org/2000/svg">
<g clip-path="url(#clip0_38_46)">
<path d="M20.7703 0C15.0645 0 10.8422 4.99414 11.0312 10.4102C11.2129 15.6133 10.977 22.3527 9.28047 27.8484C7.57891 33.3602 4.70078 36.8516 0 37.3V42.3609C4.70078 42.8094 7.57891 46.3008 9.28047 51.8129C10.977 57.3086 11.2129 64.0473 11.0312 69.2508C10.8422 74.666 15.0645 79.6609 20.7711 79.6609H79.2371C84.9434 79.6609 89.1645 74.6668 88.9754 69.2508C88.7941 64.0477 89.0297 57.3086 90.7262 51.8129C92.4289 46.3012 95.2992 42.809 100 42.3609V37.3C95.2992 36.8516 92.4289 33.3602 90.7266 27.8484C89.0297 22.3535 88.7941 15.6137 88.9754 10.4102C89.1645 4.99492 84.9434 0 79.2371 0H20.7695H20.7703ZM67.7969 49.0363C67.7969 56.4941 62.2344 61.0168 53.0031 61.0168H37.2883C36.8389 61.0166 36.4079 60.8379 36.0902 60.5201C35.7724 60.2023 35.5939 59.7713 35.5938 59.3219V20.3391C35.5938 19.8895 35.7723 19.4584 36.0902 19.1404C36.408 18.8225 36.8391 18.6439 37.2887 18.6438H52.9133C60.6105 18.6438 65.6621 22.8137 65.6621 29.2152C65.6621 33.7086 62.2637 37.7312 57.9344 38.4355V38.6703C63.8285 39.3168 67.7969 43.3984 67.7969 49.0363ZM51.2891 24.0168H42.3293V36.673H49.8762C55.7098 36.673 58.927 34.3238 58.927 30.1246C58.927 26.1898 56.1602 24.0168 51.2891 24.0168ZM42.3297 41.6949V55.6422H51.6195C57.693 55.6422 60.9109 53.2051 60.9109 48.6246C60.9109 44.0434 57.6035 41.6941 51.2289 41.6941H42.3297V41.6949Z" fill="#7E13F8"/>
</g>
<defs>
<clipPath id="clip0_38_46">
<rect width="100" height="79.6875" fill="white"/>
</clipPath>
</defs>
</svg>
