<svg width="100" height="69" viewBox="0 0 100 69" fill="none" xmlns="http://www.w3.org/2000/svg">
<g clip-path="url(#clip0_38_48)">
<path d="M29.748 45.0736L32.7871 54.9549C33.4699 57.1984 33.7547 58.7646 33.6406 59.6572C35.3027 55.1964 36.4641 50.3352 37.1248 45.0736H40.7791C39.2076 53.6396 37.1355 59.8641 34.5629 63.7472C32.5586 66.7395 30.3629 68.2356 27.9719 68.2356C27.3344 68.2356 26.5484 68.0426 25.6158 67.6594V65.5946C26.0715 65.6615 26.6061 65.6973 27.2209 65.6973C28.3361 65.6971 29.2356 65.3877 29.9193 64.7692C30.7383 64.0159 31.1482 63.1692 31.1482 62.2307C31.1482 61.59 30.8285 60.2749 30.192 58.2856L25.9576 45.0736H29.748ZM6.48887 39.0002L12.0553 56.0192H12.0896L17.6902 39.0002H22.266C23.268 47.4404 23.8598 55.1629 24.0414 62.1628H20.1836C20.0477 55.6195 19.6721 49.4661 19.057 43.7026H19.0234L13.1488 62.1628H10.2109L4.37188 43.7026H4.3375C3.90456 49.2378 3.63138 55.3912 3.51797 62.1628H0C0.227344 53.927 0.796289 46.2068 1.70684 39.0002H6.48887Z" fill="#00758F"/>
<path d="M68.8473 38.6564C74.835 38.6564 77.829 42.4898 77.829 50.1528C77.829 54.3169 76.9286 57.4623 75.1295 59.5872C74.8053 59.9756 74.4469 60.311 74.0696 60.6218L78.3069 62.7213L78.3028 62.7211L76.7983 65.3246L71.2801 62.0981C70.3653 62.3695 69.3594 62.5052 68.2624 62.5052C65.3223 62.5052 63.1262 61.6466 61.6743 59.9315C60.0805 58.0342 59.284 55.0473 59.284 50.976C59.284 46.8354 60.1829 43.7019 61.9825 41.5742C63.6215 39.628 65.9102 38.6564 68.8473 38.6564ZM50.5114 38.6899C52.6514 38.6899 54.5973 39.2638 56.35 40.4073L55.4598 42.3953C53.96 41.7564 52.4813 41.4357 51.0231 41.4357C49.8399 41.4357 48.9282 41.721 48.2926 42.2953C47.6536 42.8644 47.2583 43.5968 47.2583 44.4897C47.2583 45.8617 48.2336 47.0514 50.0346 48.0566C50.6246 48.3798 51.2126 48.7068 51.7985 49.0374L51.9329 49.1131L52.0002 49.1511L52.1348 49.2268L52.202 49.2648L52.3364 49.3408C53.6997 50.1109 54.9825 50.846 54.9825 50.846C56.7833 52.127 57.6809 53.4927 57.6809 55.7421C57.6809 57.7066 56.9626 59.3191 55.5305 60.5809C54.0975 61.837 52.1723 62.4669 49.7614 62.4669C47.5065 62.4669 45.3211 61.7419 43.2043 60.3042L44.1946 58.3145C46.0163 59.2295 47.6647 59.6865 49.145 59.6865C50.5333 59.6865 51.62 59.3759 52.4061 58.7625C53.1907 58.1446 53.6608 57.2828 53.6608 56.1901C53.6608 54.8148 52.7061 53.6391 50.9547 52.6529C50.4066 52.3494 49.86 52.043 49.3151 51.7336L49.1809 51.6575C48.9344 51.5179 48.6862 51.3766 48.443 51.2383L48.3112 51.1631C47.1286 50.489 46.1061 49.9001 46.1061 49.9001C44.3553 48.6168 43.4774 47.2399 43.4774 44.9711C43.4774 43.0948 44.1321 41.5781 45.4395 40.4244C46.7502 39.2681 48.4408 38.6899 50.5114 38.6899ZM84.8659 38.9999V59.3132H92.1389V62.1625H81.1772V39.0001L84.8659 38.9999ZM96.1803 59.322V59.8035H95.3807V62.16H94.7694V59.8035H93.9387V59.322H96.1803ZM97.6569 59.322L98.4247 61.2565L99.1299 59.322H99.9965V62.16H99.4204V60.0002L98.6176 62.16H98.2022L97.3981 60.0002H97.3672V62.16H96.8221V59.322H97.6569ZM68.4708 41.5049C64.9422 41.5049 63.177 44.4231 63.177 50.2555C63.177 53.5965 63.6448 56.0191 64.5786 57.5291C65.4434 58.9265 66.7979 59.6238 68.6422 59.6238C72.1708 59.6238 73.9358 56.683 73.9358 50.804C73.9358 47.5098 73.468 45.1079 72.5354 43.5972C71.6696 42.2029 70.3157 41.5049 68.471 41.5049" fill="#F29111"/>
<path d="M59.2223 1.43522C60.3928 -1.44694 64.4856 0.735722 66.0739 1.7425C66.4631 1.99439 66.9096 2.52655 67.3559 2.72325C68.0522 2.75065 68.7479 2.80526 69.4454 2.83442C70.7536 3.14248 71.979 3.39418 73.0098 3.98251C77.8005 6.80967 80.919 9.69066 83.7891 14.4494C84.4024 15.4573 84.7088 16.5481 85.2098 17.6388C85.9051 19.2647 86.6864 20.9713 87.4934 22.5087C87.8547 23.2376 88.1342 24.048 88.636 24.6636C88.8319 24.945 89.3883 25.028 89.721 25.1961C90.6405 25.6731 91.7546 26.0352 92.6194 26.5949C94.2344 27.6041 95.796 28.8066 97.2155 30.0376C97.7446 30.5128 98.1051 31.1855 98.6092 31.6881V31.9418C98.1618 32.0794 97.7159 32.2203 97.2696 32.3332C96.2948 32.5841 95.4313 32.5274 94.4856 32.7785C93.9012 32.9484 93.1756 33.1725 92.5628 33.2294L92.6194 33.2866C92.9799 34.319 94.9307 35.1586 95.8229 35.7761C96.9065 36.5598 97.9106 37.5102 98.7188 38.6017C98.9979 38.8802 99.277 39.1337 99.5547 39.4114C99.7489 39.6929 99.8036 40.0569 100 40.3078V40.3927C99.7825 40.3158 99.626 40.169 99.4778 40.0156L99.3893 39.923C99.3008 39.831 99.2116 39.7406 99.1098 39.666C98.495 39.2452 97.8844 38.7419 97.2696 38.3506C96.2126 37.6785 94.9866 37.2884 93.9012 36.6138C93.2876 36.2222 92.7026 35.7761 92.1176 35.3279C91.5874 34.9351 91.0034 34.1808 90.6702 33.6211C90.4739 33.3118 90.4469 32.9484 90.2227 32.7247C90.2628 32.351 90.6044 32.2401 90.9491 32.1489L91.0284 32.1279C91.1473 32.097 91.2637 32.0661 91.3653 32.0252C92.8133 31.409 94.5397 31.1855 96.769 31.2415C96.685 30.6806 95.2921 29.9817 94.8473 29.6458C93.9548 29.0011 93.0096 28.3284 92.0628 27.7416C91.561 27.4344 90.6964 27.2101 90.1405 26.959C89.3883 26.6509 87.7167 26.343 87.2999 25.7563C86.5919 24.8313 86.0833 23.728 85.5895 22.6136L85.4551 22.3095L85.3204 22.0055C84.7368 20.6635 84.0118 19.2643 83.4268 17.8901C83.121 17.2198 82.9805 16.6314 82.6456 15.9885C80.6129 12.0432 77.6046 8.74005 73.9571 6.41706C72.7585 5.66119 71.4219 4.96169 69.9465 4.48629C69.1104 4.23322 68.1069 4.37316 67.2161 4.17901H66.6297C66.1294 4.0377 65.7116 3.50613 65.3212 3.22586C64.4588 2.63909 63.5952 2.24511 62.5639 1.82647C62.2026 1.65854 61.1708 1.26749 60.8106 1.57536C60.5876 1.63153 60.4745 1.71588 60.4196 1.94018C60.1977 2.27486 60.3928 2.77903 60.5309 3.08768C60.9493 3.98212 61.5337 4.51369 62.0641 5.26956C62.536 5.9399 63.1221 6.69576 63.4567 7.42462C64.1786 8.99135 64.5147 10.7272 65.1837 12.2937C65.4317 12.8828 65.8241 13.5532 66.1852 14.0846C66.4913 14.5063 67.0477 14.8113 67.2161 15.3452C67.5516 15.9049 66.7137 17.7519 66.5198 18.3385C65.7942 20.6337 65.9348 23.8241 66.7704 25.8136L66.8149 25.9185L66.8594 26.0248C67.1645 26.7535 67.4911 27.5381 68.3022 27.7418C68.3581 27.6863 68.3022 27.7154 68.4129 27.6863C68.6092 26.1463 68.6645 24.6634 69.1942 23.4585C69.5003 22.7052 70.1114 22.1727 70.5303 21.5577C70.8096 21.7252 70.8096 22.2304 70.976 22.5647C71.3385 23.4317 71.7278 24.3823 72.1747 25.2519C73.0919 27.0427 74.1239 28.779 75.2932 30.3455C75.6848 30.9051 76.2405 31.521 76.7417 32.025C76.9649 32.2201 77.2149 32.3328 77.3827 32.5839H77.4374V32.6685C76.6018 32.3598 76.0721 31.4936 75.4057 30.9878C74.151 30.0372 72.6485 28.6097 71.7837 27.2398C71.4219 26.4534 71.0309 25.6997 70.6411 24.9172V24.8607C70.4745 25.0842 70.5303 25.3061 70.4469 25.6443C70.0852 27.0427 70.3637 28.638 69.1104 29.141C67.6897 29.7302 66.6299 28.1904 66.1852 27.4907C64.7641 25.1683 64.3749 21.2504 65.377 18.0878C65.5997 17.3877 65.6299 16.5481 66.0186 15.9891C65.9346 15.4838 65.546 15.3456 65.3212 15.0359C64.9313 14.5067 64.5975 13.8902 64.2922 13.3025C63.7059 12.1544 63.2887 10.7826 62.8436 9.55131C62.6479 9.0485 62.5919 8.54374 62.3967 8.06776C62.0639 7.34125 61.4504 6.61239 60.9772 5.96965C60.3364 5.04585 58.47 3.25541 59.2223 1.43522ZM68.3575 6.9183C68.4319 6.99306 68.5217 7.05843 68.6147 7.12282L68.7268 7.19994C68.8762 7.30367 69.021 7.41288 69.1096 7.56162C69.2503 7.75852 69.2764 7.95287 69.4448 8.15015C69.4448 8.82284 69.2503 9.27006 68.8575 9.54876C68.8575 9.54876 68.8307 9.57812 68.8032 9.60552C68.5805 9.15713 68.3854 8.71108 68.1612 8.26308C67.885 7.87204 67.4946 7.56182 67.2696 7.11499H67.2155V7.05882C67.5516 6.97564 67.885 6.9183 68.3575 6.9183Z" fill="#00758F"/>
</g>
<defs>
<clipPath id="clip0_38_48">
<rect width="100" height="68.306" fill="white"/>
</clipPath>
</defs>
</svg>
