<svg width="100" height="100" viewBox="0 0 100 100" fill="none" xmlns="http://www.w3.org/2000/svg">
<g clip-path="url(#clip0_38_28)">
<path d="M21.3055 0.0858832C21.1493 0.146821 16.7587 2.64838 11.5501 5.64213C5.23912 9.27026 1.99771 11.1812 1.82428 11.3609C1.67584 11.5367 1.55865 11.7374 1.48209 11.9546C1.35162 12.3953 1.34224 76.7867 1.47428 77.2499C1.52193 77.4296 1.6774 77.6937 1.81803 77.839C2.15865 78.1984 39.8368 99.8624 40.2946 99.9671C40.5071 100.018 40.7454 100.009 40.9821 99.9437C41.4962 99.8148 79.0758 78.1984 79.4102 77.8453C79.5469 77.6929 79.7032 77.4296 79.754 77.2507C79.8196 77.0374 79.8438 73.6726 79.8438 66.5828V56.2234L89.0047 50.9617C97.6422 45.9953 98.1712 45.6843 98.393 45.3437L98.6196 44.9765V33.8179C98.6196 21.671 98.643 22.3546 98.1626 21.9156C98.0337 21.8015 93.6329 19.2335 88.3735 16.2046L78.8204 10.7109H77.7587L68.4126 16.0781C63.2672 19.0374 58.8938 21.5679 58.6805 21.7054C58.468 21.846 58.2141 22.1054 58.1102 22.2937L57.9212 22.6195L57.879 33.1312L57.8415 43.6468L50.1235 48.0921C45.8782 50.5328 42.3446 52.5531 42.2696 52.5718C42.1329 52.6101 42.1235 51.6093 42.1235 32.2859V11.9476L41.9204 11.5984C41.6657 11.1726 42.8079 11.8515 31.3391 5.25932C21.7211 -0.271929 21.9524 -0.156304 21.3055 0.0858832ZM30.1469 8.13823C34.1704 10.4468 37.4626 12.357 37.4626 12.3804C37.4626 12.4046 33.9344 14.4437 29.6227 16.9218L21.7782 21.4257L13.9477 16.9226C9.64537 14.4437 6.11959 12.4046 6.11959 12.3804C6.11959 12.3562 9.63912 10.3179 13.9422 7.84526L21.754 3.35151L22.293 3.64526C24.9159 5.13484 27.5339 6.6325 30.1469 8.13823ZM86.1376 18.4984C90.3735 20.9374 93.8782 22.9531 93.911 22.9859C94.0001 23.0664 78.4626 31.9976 78.2501 31.9882C78.0376 31.982 62.6915 23.1328 62.6977 23.0249C62.7055 22.9023 78.1454 14.0195 78.3016 14.0437C78.3727 14.0609 81.9008 16.0671 86.1376 18.4984ZM12.7344 19.7874L20.2016 24.0867L20.2446 45.3734L20.2836 66.664L20.4657 66.9515C20.561 67.1031 20.7407 67.3101 20.8719 67.4054C20.9954 67.4953 25.1508 69.8632 30.1047 72.6585L39.1047 77.7414V86.7468C39.1047 91.689 39.0712 95.7437 39.029 95.7437C38.9969 95.7437 31.2165 91.2913 21.7446 85.8406L4.52584 75.9382L4.5024 45.496L4.48756 15.0632L4.87037 15.2749C5.09146 15.3921 8.62584 17.4218 12.7336 19.7867L12.7344 19.7874ZM39.1047 34.7718V54.3882L38.8024 54.5859C38.3922 54.8453 23.4376 63.4414 23.3868 63.4414C23.3633 63.4414 23.3446 54.5851 23.3446 43.7593L23.354 24.0859L31.1665 19.5921C35.4626 17.1195 39.0055 15.1132 39.0477 15.1281C39.0782 15.1468 39.1047 23.9874 39.1047 34.7718ZM68.9094 30.2601L76.7399 34.7624V43.6874C76.7399 52.1546 76.7313 52.6093 76.6024 52.5601C76.5188 52.5281 72.9758 50.4976 68.7251 48.0492L60.9829 43.6039V34.682C60.9829 29.7703 61.0079 25.757 61.0313 25.757C61.0649 25.757 64.6071 27.782 68.9094 30.2601ZM95.6001 34.6249C95.6001 39.5109 95.5672 43.5406 95.5344 43.5796C95.4782 43.6695 79.9907 52.5937 79.8922 52.5937C79.868 52.5937 79.8438 48.582 79.8438 43.6695V34.7476L87.6563 30.2507C91.9587 27.782 95.5016 25.757 95.5344 25.757C95.5758 25.757 95.6001 29.7453 95.6001 34.6249ZM74.9946 55.4163L40.629 75.0312L25.0438 66.1664C25.0438 66.1664 59.3751 46.3101 59.5126 46.3617L74.9946 55.4163ZM76.7251 66.9999L76.6985 75.939L59.4891 85.8421C50.0204 91.2921 42.2376 95.7445 42.1985 95.7445C42.1571 95.7445 42.1243 92.1054 42.1243 86.7476V77.7421L59.3743 67.9046C68.8524 62.496 76.6407 58.0687 76.6821 58.0593C76.7157 58.0593 76.7305 62.0812 76.7243 66.9992L76.7251 66.9999Z" fill="#F0513F"/>
</g>
<defs>
<clipPath id="clip0_38_28">
<rect width="100" height="100" fill="white"/>
</clipPath>
</defs>
</svg>
