<svg width="92" height="18" viewBox="0 0 92 18" fill="none" xmlns="http://www.w3.org/2000/svg">
<g clip-path="url(#clip0_137_36)">
<path d="M88.9708 3.48938C88.4868 3.48938 88.0137 3.6329 87.6112 3.90179C87.2088 4.17067 86.8952 4.55285 86.71 5C86.5247 5.44714 86.4763 5.93916 86.5707 6.41385C86.6651 6.88853 86.8982 7.32456 87.2404 7.66679C87.5826 8.00901 88.0187 8.24207 88.4934 8.3365C88.968 8.43092 89.4601 8.38246 89.9072 8.19724C90.3543 8.01203 90.7365 7.69838 91.0054 7.29597C91.2743 6.89355 91.4178 6.42043 91.4178 5.93645C91.4178 5.28744 91.16 4.66502 90.7011 4.20611C90.2422 3.7472 89.6198 3.48938 88.9708 3.48938ZM88.9708 7.8941C88.5836 7.8941 88.2051 7.77929 87.8831 7.56418C87.5612 7.34907 87.3103 7.04332 87.1621 6.68561C87.0139 6.32789 86.9752 5.93428 87.0507 5.55453C87.1262 5.17478 87.3127 4.82596 87.5865 4.55218C87.8603 4.27839 88.2091 4.09195 88.5888 4.01641C88.9686 3.94087 89.3622 3.97964 89.7199 4.12781C90.0776 4.27598 90.3834 4.5269 90.5985 4.84883C90.8136 5.17077 90.9284 5.54926 90.9284 5.93645C90.9284 6.45565 90.7222 6.95359 90.355 7.32072C89.9879 7.68785 89.49 7.8941 88.9708 7.8941Z" fill="white"/>
<path d="M89.9496 5.44701C89.9496 5.25231 89.8723 5.06558 89.7346 4.92791C89.5969 4.79024 89.4102 4.71289 89.2155 4.71289H87.9919V7.15996H88.4814V6.18113H88.8386L89.492 7.15996H90.0793L89.4063 6.15177C89.5616 6.10997 89.6988 6.01839 89.7969 5.89108C89.8951 5.76376 89.9487 5.60776 89.9496 5.44701ZM89.2155 5.69172H88.4814V5.2023H89.2155C89.2804 5.2023 89.3426 5.22809 89.3885 5.27398C89.4344 5.31987 89.4602 5.38211 89.4602 5.44701C89.4602 5.51191 89.4344 5.57415 89.3885 5.62004C89.3426 5.66594 89.2804 5.69172 89.2155 5.69172Z" fill="white"/>
</g>
<path d="M4.6792 14.1611C1.91797 14.1392 0.16748 12.125 0.27002 8.8291C0.365234 5.54053 3.17773 3.89258 6.83984 3.8999C9.53516 3.90723 11.3735 4.39795 11.3735 4.39795L10.9561 7.48877C10.9561 7.48877 8.69287 7.12256 7.85059 7.12256C6.35645 7.12256 4.91357 7.33496 4.91357 9.09277C4.91357 10.7627 6.43701 11.1143 7.95312 10.8726V10.0449H6.90576L6.83984 8.21387H11.8716V13.9927H9.24951L8.94922 12.96L9.47656 12.2642L9.27881 12.0298C9.27881 12.0298 7.85059 14.1831 4.6792 14.1611ZM17.7017 14.1758C14.2812 14.1611 12.6919 13.0625 12.6919 9.979C12.7871 7.29102 14.5742 5.81885 17.4526 5.78223C20.7852 5.73096 22.3452 7.38623 22.3525 9.16602C22.3525 9.90576 22.3086 10.4624 22.3086 10.4624H16.2295V10.6602C16.2295 10.6602 16.8228 10.7334 17.2476 10.8872C17.8042 11.0996 18.3022 11.2754 19.2837 11.2754C19.9941 11.2754 21.7739 11.0483 21.7739 11.0483L22.1768 13.7656C22.1768 13.7656 19.7891 14.1904 17.7017 14.1758ZM17.8555 8.74854C17.4087 8.73389 17.1743 8.96826 17.1011 9.49561H18.5879C18.522 9.11475 18.3315 8.75586 17.8555 8.74854ZM27.6553 5.93604V6.43408L26.8203 7.59863L27.0181 7.73047C27.0181 7.73047 28.4683 5.76025 30.292 5.76758C32.3208 5.78223 33.793 6.88818 33.793 9.97168V14H29.3472V9.97168C29.3472 8.90967 29.0469 8.66064 28.4829 8.66064C27.9629 8.65332 27.6626 9.03418 27.6553 9.96436V14H23.1875V5.93604H27.6553ZM45.0063 5.92139L45.043 9.12939L39.9526 11.4365L40.0625 11.6343L41.8203 11.0776H45.043V13.9854H34.8696L34.833 10.792L39.8135 8.48486L39.7036 8.28711L37.9165 8.84375H34.833V5.92139H45.0063ZM46.3394 6.78564C46.3394 6.78564 47.123 7.36426 48.4854 7.34961C49.8916 7.32764 50.5874 6.78564 50.5874 6.78564H50.7339L50.6973 13.9854H46.2441V6.78564H46.3394ZM48.5 3.76807C49.9355 3.76807 50.9243 4.34668 50.9243 5.34277C50.9243 6.33154 49.9355 6.91748 48.5 6.91748C47.0571 6.91748 46.0757 6.33154 46.0757 5.34277C46.0757 4.34668 47.0571 3.76807 48.5 3.76807ZM55.7656 14.0732C53.9053 13.8389 51.5103 12.2422 51.5103 9.03418C51.5103 5.26953 54.1909 3.90723 57.6187 3.90723C61.0464 3.90723 63.6978 5.26953 63.7271 9.03418C63.7563 13.5312 59.8452 13.7363 59.8452 13.7363V13.9634L63.3975 13.9341L63.3315 17.0835H60.1748C58.1167 17.0542 56.1904 16.2778 55.7656 14.0732ZM57.6187 7.02734C56.7764 7.02734 56.0879 7.50342 56.0879 9.03418C56.0879 10.5649 56.7764 11.041 57.6187 11.041C58.4609 11.041 59.1421 10.5649 59.1421 9.03418C59.1421 7.50342 58.4609 7.02734 57.6187 7.02734ZM69.0078 9.94971C69.0078 11.0117 69.3081 11.2534 69.8721 11.2607C70.3921 11.2681 70.6924 10.8799 70.6997 9.94971C70.707 8.99023 70.6997 5.91406 70.6997 5.91406H75.1602V13.978H70.6997V13.48L71.5273 12.3228L71.3296 12.1909C71.3296 12.1909 69.8867 14.1538 68.063 14.1465C66.0415 14.1392 64.5693 13.0332 64.5693 9.94971C64.5693 6.86621 64.5693 5.92139 64.5693 5.92139H69.0078C69.0078 5.92139 69.0078 8.82178 69.0078 9.94971ZM81.0415 14.1758C77.6211 14.1611 76.0317 13.0625 76.0317 9.979C76.127 7.29102 77.9141 5.81885 80.7925 5.78223C84.125 5.73096 85.6851 7.38623 85.6924 9.16602C85.6924 9.90576 85.6484 10.4624 85.6484 10.4624H79.5693V10.6602C79.5693 10.6602 80.1626 10.7334 80.5874 10.8872C81.144 11.0996 81.6421 11.2754 82.6235 11.2754C83.334 11.2754 85.1138 11.0483 85.1138 11.0483L85.5166 13.7656C85.5166 13.7656 83.1289 14.1904 81.0415 14.1758ZM81.1953 8.74854C80.7485 8.73389 80.5142 8.96826 80.4409 9.49561H81.9277C81.8618 9.11475 81.6714 8.75586 81.1953 8.74854Z" fill="white"/>
<defs>
<clipPath id="clip0_137_36">
<rect width="5.87296" height="5.87296" fill="white" transform="translate(86 3)"/>
</clipPath>
</defs>
</svg>
